<svg width="22" height="24" viewBox="0 0 22 24" fill="none" xmlns="http://www.w3.org/2000/svg">
<path fill-rule="evenodd" clip-rule="evenodd" d="M10.2266 0.00585938V5.81786H12.0766L14.4976 3.40986L10.2266 0.00585938Z" fill="#5EB5F7"/>
<path fill-rule="evenodd" clip-rule="evenodd" d="M13.102 17.988C10.889 18.845 7.602 20.137 7.212 20.323C6.95611 20.4495 6.67446 20.5152 6.389 20.515C6.05198 20.5103 5.72116 20.4237 5.42502 20.2627C5.12888 20.1017 4.87629 19.8712 4.689 19.591C4.49924 19.3235 4.37711 19.0141 4.33305 18.6891C4.28898 18.3641 4.32431 18.0333 4.436 17.725C4.565 17.39 5.792 13.767 6.536 11.561L6.65 11.223L10.557 7.336H8.693V0H0V23.375H17.492V13.788L13.401 17.869L13.101 17.983L13.102 17.988Z" fill="#5EB5F7"/>
<path fill-rule="evenodd" clip-rule="evenodd" d="M21.4563 5.7068L19.2073 3.4918C18.911 3.17475 18.512 2.97296 18.081 2.92225C17.6501 2.87153 17.2151 2.97519 16.8533 3.2148L7.98429 12.0438C7.98429 12.0438 6.04929 17.7748 5.86629 18.2568C5.72129 18.6408 6.2043 19.1208 6.5403 18.9568C7.0883 18.6848 12.5533 16.5678 12.5533 16.5678L21.4463 7.6958C21.5855 7.57125 21.697 7.4189 21.7736 7.24859C21.8503 7.07828 21.8904 6.89379 21.8913 6.70702C21.8922 6.52026 21.854 6.33537 21.7791 6.1643C21.7042 5.99322 21.5942 5.83975 21.4563 5.7138V5.7068ZM11.6993 15.8808L7.93929 17.3068L7.2643 16.6838L9.05829 12.3408L10.1433 13.1408H11.6933L11.6993 15.8798V15.8808Z" fill="#5EB5F7"/>
</svg>
