<svg width="25" height="24" viewBox="0 0 25 24" fill="none" xmlns="http://www.w3.org/2000/svg">
<path fill-rule="evenodd" clip-rule="evenodd" d="M21.6292 23.0661C22.4402 23.8801 22.9412 23.3011 23.6072 22.6371C24.2732 21.9731 24.8502 21.4701 24.0392 20.6581C24.0392 20.6581 12.7392 9.36505 9.93918 6.58105L7.53418 8.98905L21.6342 23.0661H21.6292Z" fill="#5EB5F7"/>
<path fill-rule="evenodd" clip-rule="evenodd" d="M3.04581 10.95L3.98381 10.028C3.98381 10.028 3.56981 8.893 4.17581 8.35C4.41349 8.19338 4.68384 8.09321 4.96619 8.05716C5.24854 8.02111 5.5354 8.05013 5.80481 8.142L9.09581 4.961C9.09581 4.961 8.86481 3.307 9.17081 3.002C9.47681 2.697 12.8888 1.033 13.2188 0.7L12.5188 0C12.5188 0 7.74581 0.573 7.22381 1.089C6.92381 1.394 4.64581 3.689 3.02381 5.313C3.02381 5.313 3.42981 6.472 2.89581 7.007C2.36181 7.542 1.15381 7.155 1.15381 7.155L0.202806 8.105C-0.197194 8.505 0.0378056 9.078 0.530806 9.571L1.57881 10.619C2.07881 11.114 2.64481 11.347 3.04681 10.946L3.04581 10.95Z" fill="#5EB5F7"/>
<path fill-rule="evenodd" clip-rule="evenodd" d="M17.8352 8.65877C18.6631 9.0589 19.5942 9.19437 20.5019 9.04676C21.4095 8.89915 22.2497 8.47564 22.9082 7.83378C23.4088 7.33537 23.7832 6.72466 24.0002 6.05242C24.2173 5.38018 24.2708 4.66583 24.1562 3.96878L21.8332 6.28877L19.8572 6.77878L17.6242 4.57877L18.1482 2.53478L20.4482 0.262775C19.7442 0.130671 19.0189 0.166311 18.3313 0.366807C17.6436 0.567303 17.0129 0.927012 16.4902 1.41677C15.8541 2.09048 15.4391 2.94254 15.301 3.85873C15.1628 4.77492 15.308 5.71145 15.7172 6.54278L14.2012 8.05977C14.8682 8.72377 15.5812 9.43677 16.3212 10.1748L17.8362 8.65877H17.8352Z" fill="#5EB5F7"/>
<path fill-rule="evenodd" clip-rule="evenodd" d="M11.2679 15.6901L8.96788 13.3901L6.96788 15.3901C6.85007 15.506 6.75628 15.644 6.69188 15.7961C6.62359 15.7585 6.54381 15.7475 6.46788 15.7651C5.94809 15.5818 5.39444 15.5147 4.8459 15.5684C4.29735 15.6221 3.76724 15.7953 3.29287 16.076C2.8185 16.3566 2.41138 16.7378 2.10019 17.1927C1.78899 17.6476 1.58126 18.1652 1.49162 18.709C1.40199 19.2528 1.43262 19.8097 1.58136 20.3404C1.73011 20.8711 1.99335 21.3628 2.35257 21.7808C2.71179 22.1988 3.15825 22.533 3.66055 22.76C4.16284 22.9869 4.70875 23.1009 5.25988 23.0941C5.86647 23.1087 6.46745 22.9751 7.01069 22.7048C7.55392 22.4345 8.023 22.0357 8.37721 21.5431C8.73142 21.0504 8.96006 20.4788 9.0433 19.8778C9.12654 19.2768 9.06186 18.6645 8.85488 18.0941C8.84918 18.0518 8.83879 18.0102 8.82388 17.9701C8.98855 17.9054 9.13827 17.8077 9.26388 17.6831L11.2639 15.6831L11.2679 15.6901ZM5.26788 21.5221C4.96835 21.5402 4.66828 21.4968 4.38614 21.3947C4.10399 21.2925 3.84574 21.1337 3.62725 20.928C3.40876 20.7223 3.23466 20.4741 3.11566 20.1986C2.99666 19.9231 2.93527 19.6262 2.93527 19.3261C2.93527 19.0261 2.99666 18.7292 3.11566 18.4537C3.23466 18.1782 3.40876 17.93 3.62725 17.7243C3.84574 17.5186 4.10399 17.3598 4.38614 17.2576C4.66828 17.1554 4.96835 17.112 5.26788 17.1301C5.56741 17.112 5.86747 17.1554 6.14962 17.2576C6.43176 17.3598 6.69002 17.5186 6.90851 17.7243C7.12699 17.93 7.30109 18.1782 7.42009 18.4537C7.53909 18.7292 7.60048 19.0261 7.60048 19.3261C7.60048 19.6262 7.53909 19.9231 7.42009 20.1986C7.30109 20.4741 7.12699 20.7223 6.90851 20.928C6.69002 21.1337 6.43176 21.2925 6.14962 21.3947C5.86747 21.4968 5.56741 21.5402 5.26788 21.5221Z" fill="#5EB5F7"/>
</svg>
