<svg width="21" height="16" viewBox="0 0 21 16" fill="none" xmlns="http://www.w3.org/2000/svg">
<path fill-rule="evenodd" clip-rule="evenodd" d="M11.178 15.722C11.0362 15.7221 10.8982 15.6763 10.7846 15.5914C10.671 15.5065 10.588 15.3871 10.548 15.251L8.741 9.151H6.566C6.41889 9.15123 6.27595 9.10208 6.16009 9.01143C6.04424 8.92077 5.96215 8.79385 5.927 8.651L4.643 3.314L3.265 8.653C3.22833 8.79388 3.14604 8.91866 3.03099 9.00785C2.91593 9.09703 2.77458 9.14561 2.629 9.146H0V7.893H2.117L4.026 0.493C4.06252 0.352032 4.14476 0.22716 4.25985 0.137946C4.37495 0.0487315 4.51638 0.000216138 4.662 0H4.667C4.81321 0.00105616 4.9549 0.05078 5.06971 0.141321C5.18452 0.231863 5.26589 0.358064 5.301 0.5L7.08 7.893H9.23C9.37181 7.89286 9.50985 7.93869 9.62343 8.0236C9.737 8.10851 9.82001 8.22795 9.86 8.364L11.182 12.764L12.523 8.364C12.5635 8.2285 12.6468 8.10974 12.7603 8.0254C12.8738 7.94106 13.0116 7.89567 13.153 7.896H14.053L15.824 4.296C15.878 4.1867 15.9613 4.09453 16.0646 4.02973C16.1679 3.96494 16.2871 3.93007 16.409 3.929H16.414C16.5351 3.92818 16.654 3.96103 16.7575 4.0239C16.861 4.08677 16.9449 4.17717 17 4.285L18.854 7.893H21V9.146H18.454C18.3333 9.14645 18.2148 9.11342 18.1117 9.05058C18.0086 8.98773 17.9249 8.89753 17.87 8.79L16.43 5.99L15.053 8.782C14.9993 8.89219 14.9157 8.98505 14.8117 9.04996C14.7077 9.11486 14.5876 9.14918 14.465 9.149H13.642L11.806 15.256C11.7658 15.3915 11.6828 15.5103 11.5694 15.5947C11.456 15.6791 11.3183 15.7244 11.177 15.724L11.178 15.722Z" fill="#5EB5F7"/>
</svg>
