<svg width="24" height="24" viewBox="0 0 24 24" fill="none" xmlns="http://www.w3.org/2000/svg">
<path fill-rule="evenodd" clip-rule="evenodd" d="M23.373 13.092V10.221H20.337C20.1193 8.91838 19.6084 7.68227 18.843 6.606L20.989 4.458L18.915 2.386L16.768 4.532C15.692 3.76491 14.456 3.25203 13.153 3.032V0H10.221V3.034C8.91784 3.25339 7.68166 3.76633 6.606 4.534L4.46 2.386L2.429 4.416L4.568 6.558C3.78165 7.64546 3.25671 8.89963 3.034 10.223H0V13.095H3.026C3.2364 14.4198 3.74972 15.6781 4.526 16.772L2.385 18.915L4.458 20.989L6.604 18.843C7.67998 19.6101 8.91603 20.123 10.219 20.343V23.377H13.152V20.34C14.4753 20.117 15.7294 19.5921 16.817 18.806L18.955 20.944L20.986 18.914L18.84 16.768C19.6159 15.6739 20.1292 14.4157 20.34 13.091L23.373 13.092ZM11.717 16.158C10.8226 16.158 9.94835 15.8928 9.20471 15.3959C8.46107 14.899 7.88148 14.1928 7.53922 13.3665C7.19696 12.5402 7.10741 11.631 7.28189 10.7538C7.45637 9.87662 7.88705 9.07088 8.51946 8.43846C9.15188 7.80605 9.95762 7.37537 10.8348 7.20089C11.712 7.02641 12.6212 7.11596 13.4475 7.45822C14.2738 7.80048 14.98 8.38007 15.4769 9.12371C15.9738 9.86735 16.239 10.7416 16.239 11.636C16.2387 12.8352 15.7622 13.9853 14.9142 14.8332C14.0663 15.6812 12.9162 16.1577 11.717 16.158Z" fill="#5EB5F7"/>
</svg>
